<svg xmlns="http://www.w3.org/2000/svg" width="27" height="30" fill="none" style=""><rect id="backgroundrect" width="100%" height="100%" x="0" y="0" fill="none" stroke="none"/>




<g class="currentLayer" style=""><title>Layer 1</title><path d="M0.588846 29.4057L14.4883 14.9893L0.600491 0.598633C0.22955 0.822679 0 1.34143 0 2.02047V27.9977C0.0049749 28.6767 0.226223 29.1575 0.588846 29.4057Z" fill="#ff6428" id="svg_1" class="" fill-opacity="1"/><path d="M14.986,14.5914L19.1262,10.2967L2.26592,0.70752C1.98201,0.53643 1.65953,0.44605 1.33109,0.44556L14.9844,14.5897L14.986,14.5914z" fill="#ff6428" id="svg_2" class="" fill-opacity="1"/><path d="M14.9866,15.3899L1.29004,29.5961C1.63381,29.6021 1.97242,29.509 2.26812,29.3272L19.1617,19.7123L14.9866,15.3899z" fill="#ff6428" id="svg_3" class="" fill-opacity="1"/><path d="M25.2344 13.7763L19.6237 10.5793L15.3704 14.9913L19.6553 19.4309L25.2327 16.2425C26.4187 15.5652 26.4187 14.4502 25.2344 13.7763Z" fill="#ff6428" id="svg_4" class="" fill-opacity="1"/></g></svg>